<svg id="visual" viewBox="0 0 960 540" width="960" height="540" xmlns="http://www.w3.org/2000/svg" xmlns:xlink="http://www.w3.org/1999/xlink" version="1.1"><path d="M0 223L9.3 236.2C18.7 249.3 37.3 275.7 56.2 294.3C75 313 94 324 112.8 326.2C131.7 328.3 150.3 321.7 169.2 311.7C188 301.7 207 288.3 225.8 281.8C244.7 275.3 263.3 275.7 282.2 268C301 260.3 320 244.7 338.8 236.7C357.7 228.7 376.3 228.3 395.2 236.5C414 244.7 433 261.3 451.8 272.8C470.7 284.3 489.3 290.7 508.2 299.3C527 308 546 319 564.8 310.8C583.7 302.7 602.3 275.3 621.2 275.5C640 275.7 659 303.3 677.8 301.8C696.7 300.3 715.3 269.7 734.2 269.7C753 269.7 772 300.3 790.8 310.3C809.7 320.3 828.3 309.7 847.2 308.8C866 308 885 317 903.8 314.3C922.7 311.7 941.3 297.3 950.7 290.2L960 283L960 541L950.7 541C941.3 541 922.7 541 903.8 541C885 541 866 541 847.2 541C828.3 541 809.7 541 790.8 541C772 541 753 541 734.2 541C715.3 541 696.7 541 677.8 541C659 541 640 541 621.2 541C602.3 541 583.7 541 564.8 541C546 541 527 541 508.2 541C489.3 541 470.7 541 451.8 541C433 541 414 541 395.2 541C376.3 541 357.7 541 338.8 541C320 541 301 541 282.2 541C263.3 541 244.7 541 225.8 541C207 541 188 541 169.2 541C150.3 541 131.7 541 112.8 541C94 541 75 541 56.2 541C37.3 541 18.7 541 9.3 541L0 541Z" fill="#2ccfd4"></path><path d="M0 359L9.3 345C18.7 331 37.3 303 56.2 298.8C75 294.7 94 314.3 112.8 319.7C131.7 325 150.3 316 169.2 314.7C188 313.3 207 319.7 225.8 321.7C244.7 323.7 263.3 321.3 282.2 319.2C301 317 320 315 338.8 319.2C357.7 323.3 376.3 333.7 395.2 327C414 320.3 433 296.7 451.8 289C470.7 281.3 489.3 289.7 508.2 297.2C527 304.7 546 311.3 564.8 317.2C583.7 323 602.3 328 621.2 322.5C640 317 659 301 677.8 302.8C696.7 304.7 715.3 324.3 734.2 336.2C753 348 772 352 790.8 348.8C809.7 345.7 828.3 335.3 847.2 326.2C866 317 885 309 903.8 301.3C922.7 293.7 941.3 286.3 950.7 282.7L960 279L960 541L950.7 541C941.3 541 922.7 541 903.8 541C885 541 866 541 847.2 541C828.3 541 809.7 541 790.8 541C772 541 753 541 734.2 541C715.3 541 696.7 541 677.8 541C659 541 640 541 621.2 541C602.3 541 583.7 541 564.8 541C546 541 527 541 508.2 541C489.3 541 470.7 541 451.8 541C433 541 414 541 395.2 541C376.3 541 357.7 541 338.8 541C320 541 301 541 282.2 541C263.3 541 244.7 541 225.8 541C207 541 188 541 169.2 541C150.3 541 131.7 541 112.8 541C94 541 75 541 56.2 541C37.3 541 18.7 541 9.3 541L0 541Z" fill="#04b0c1"></path><path d="M0 314L9.3 325.8C18.7 337.7 37.3 361.3 56.2 361.3C75 361.3 94 337.7 112.8 337.7C131.7 337.7 150.3 361.3 169.2 367.8C188 374.3 207 363.7 225.8 350.5C244.7 337.3 263.3 321.7 282.2 326.2C301 330.7 320 355.3 338.8 363.8C357.7 372.3 376.3 364.7 395.2 364.5C414 364.3 433 371.7 451.8 363.5C470.7 355.3 489.3 331.7 508.2 323.5C527 315.3 546 322.7 564.8 335.7C583.7 348.7 602.3 367.3 621.2 369.7C640 372 659 358 677.8 351.8C696.7 345.7 715.3 347.3 734.2 352.5C753 357.7 772 366.3 790.8 370.5C809.7 374.7 828.3 374.3 847.2 371.2C866 368 885 362 903.8 354C922.7 346 941.3 336 950.7 331L960 326L960 541L950.7 541C941.3 541 922.7 541 903.8 541C885 541 866 541 847.2 541C828.3 541 809.7 541 790.8 541C772 541 753 541 734.2 541C715.3 541 696.7 541 677.8 541C659 541 640 541 621.2 541C602.3 541 583.7 541 564.8 541C546 541 527 541 508.2 541C489.3 541 470.7 541 451.8 541C433 541 414 541 395.2 541C376.3 541 357.7 541 338.8 541C320 541 301 541 282.2 541C263.3 541 244.7 541 225.8 541C207 541 188 541 169.2 541C150.3 541 131.7 541 112.8 541C94 541 75 541 56.2 541C37.3 541 18.7 541 9.3 541L0 541Z" fill="#0091ab"></path><path d="M0 381L9.3 384.8C18.7 388.7 37.3 396.3 56.2 396C75 395.7 94 387.3 112.8 390.3C131.7 393.3 150.3 407.7 169.2 409.2C188 410.7 207 399.3 225.8 388.8C244.7 378.3 263.3 368.7 282.2 373.8C301 379 320 399 338.8 404C357.7 409 376.3 399 395.2 388C414 377 433 365 451.8 370.3C470.7 375.7 489.3 398.3 508.2 409C527 419.7 546 418.3 564.8 409.7C583.7 401 602.3 385 621.2 380.3C640 375.7 659 382.3 677.8 385.8C696.7 389.3 715.3 389.7 734.2 384.5C753 379.3 772 368.7 790.8 374.3C809.7 380 828.3 402 847.2 404.3C866 406.7 885 389.3 903.8 382.2C922.7 375 941.3 378 950.7 379.5L960 381L960 541L950.7 541C941.3 541 922.7 541 903.8 541C885 541 866 541 847.2 541C828.3 541 809.7 541 790.8 541C772 541 753 541 734.2 541C715.3 541 696.7 541 677.8 541C659 541 640 541 621.2 541C602.3 541 583.7 541 564.8 541C546 541 527 541 508.2 541C489.3 541 470.7 541 451.8 541C433 541 414 541 395.2 541C376.3 541 357.7 541 338.8 541C320 541 301 541 282.2 541C263.3 541 244.7 541 225.8 541C207 541 188 541 169.2 541C150.3 541 131.7 541 112.8 541C94 541 75 541 56.2 541C37.3 541 18.7 541 9.3 541L0 541Z" fill="#007392"></path><path d="M0 403L9.3 406.7C18.7 410.3 37.3 417.7 56.2 425.5C75 433.3 94 441.7 112.8 435.2C131.7 428.7 150.3 407.3 169.2 400.2C188 393 207 400 225.8 404.3C244.7 408.7 263.3 410.3 282.2 410.7C301 411 320 410 338.8 409C357.7 408 376.3 407 395.2 403.3C414 399.7 433 393.3 451.8 400.5C470.7 407.7 489.3 428.3 508.2 433C527 437.7 546 426.3 564.8 416C583.7 405.7 602.3 396.3 621.2 392C640 387.7 659 388.3 677.8 396.7C696.7 405 715.3 421 734.2 431.2C753 441.3 772 445.7 790.8 442.8C809.7 440 828.3 430 847.2 427.3C866 424.7 885 429.3 903.8 434.8C922.7 440.3 941.3 446.7 950.7 449.8L960 453L960 541L950.7 541C941.3 541 922.7 541 903.8 541C885 541 866 541 847.2 541C828.3 541 809.7 541 790.8 541C772 541 753 541 734.2 541C715.3 541 696.7 541 677.8 541C659 541 640 541 621.2 541C602.3 541 583.7 541 564.8 541C546 541 527 541 508.2 541C489.3 541 470.7 541 451.8 541C433 541 414 541 395.2 541C376.3 541 357.7 541 338.8 541C320 541 301 541 282.2 541C263.3 541 244.7 541 225.8 541C207 541 188 541 169.2 541C150.3 541 131.7 541 112.8 541C94 541 75 541 56.2 541C37.3 541 18.7 541 9.3 541L0 541Z" fill="#005777"></path><path d="M0 441L9.3 443.7C18.7 446.3 37.3 451.7 56.2 450.3C75 449 94 441 112.8 436.5C131.7 432 150.3 431 169.2 430.7C188 430.3 207 430.7 225.8 439.7C244.7 448.7 263.3 466.3 282.2 469C301 471.7 320 459.3 338.8 455.7C357.7 452 376.3 457 395.2 463.2C414 469.3 433 476.7 451.8 471.5C470.7 466.3 489.3 448.7 508.2 446.7C527 444.7 546 458.3 564.8 466.3C583.7 474.3 602.3 476.7 621.2 472.5C640 468.3 659 457.7 677.8 457.3C696.7 457 715.3 467 734.2 469.8C753 472.7 772 468.3 790.8 466.2C809.7 464 828.3 464 847.2 465.3C866 466.7 885 469.3 903.8 468.7C922.7 468 941.3 464 950.7 462L960 460L960 541L950.7 541C941.3 541 922.7 541 903.8 541C885 541 866 541 847.2 541C828.3 541 809.7 541 790.8 541C772 541 753 541 734.2 541C715.3 541 696.7 541 677.8 541C659 541 640 541 621.2 541C602.3 541 583.7 541 564.8 541C546 541 527 541 508.2 541C489.3 541 470.7 541 451.8 541C433 541 414 541 395.2 541C376.3 541 357.7 541 338.8 541C320 541 301 541 282.2 541C263.3 541 244.7 541 225.8 541C207 541 188 541 169.2 541C150.3 541 131.7 541 112.8 541C94 541 75 541 56.2 541C37.3 541 18.7 541 9.3 541L0 541Z" fill="#013c5a"></path><path d="M0 509L9.3 509C18.7 509 37.3 509 56.2 506.8C75 504.7 94 500.3 112.8 495.5C131.7 490.7 150.3 485.3 169.2 480.8C188 476.3 207 472.7 225.8 473.5C244.7 474.3 263.3 479.7 282.2 483C301 486.3 320 487.7 338.8 492.3C357.7 497 376.3 505 395.2 506.2C414 507.3 433 501.7 451.8 499.2C470.7 496.7 489.3 497.3 508.2 496.5C527 495.7 546 493.3 564.8 495.2C583.7 497 602.3 503 621.2 507C640 511 659 513 677.8 509.2C696.7 505.3 715.3 495.7 734.2 491.7C753 487.7 772 489.3 790.8 489C809.7 488.7 828.3 486.3 847.2 489.3C866 492.3 885 500.7 903.8 500.7C922.7 500.7 941.3 492.3 950.7 488.2L960 484L960 541L950.7 541C941.3 541 922.7 541 903.8 541C885 541 866 541 847.2 541C828.3 541 809.7 541 790.8 541C772 541 753 541 734.2 541C715.3 541 696.7 541 677.8 541C659 541 640 541 621.2 541C602.3 541 583.7 541 564.8 541C546 541 527 541 508.2 541C489.3 541 470.7 541 451.8 541C433 541 414 541 395.2 541C376.3 541 357.7 541 338.8 541C320 541 301 541 282.2 541C263.3 541 244.7 541 225.8 541C207 541 188 541 169.2 541C150.3 541 131.7 541 112.8 541C94 541 75 541 56.2 541C37.3 541 18.7 541 9.3 541L0 541Z" fill="#00233e"></path></svg>