<svg id="visual" viewBox="0 0 960 540" width="960" height="540" xmlns="http://www.w3.org/2000/svg" xmlns:xlink="http://www.w3.org/1999/xlink" version="1.1"><path d="M0 173L22.8 155.3C45.7 137.7 91.3 102.3 137 110.7C182.7 119 228.3 171 274 190C319.7 209 365.3 195 411.2 176.8C457 158.7 503 136.3 548.8 122.3C594.7 108.3 640.3 102.7 686 121.8C731.7 141 777.3 185 823 180.7C868.7 176.3 914.3 123.7 937.2 97.3L960 71L960 541L937.2 541C914.3 541 868.7 541 823 541C777.3 541 731.7 541 686 541C640.3 541 594.7 541 548.8 541C503 541 457 541 411.2 541C365.3 541 319.7 541 274 541C228.3 541 182.7 541 137 541C91.3 541 45.7 541 22.8 541L0 541Z" fill="#2ccfd4"></path><path d="M0 305L22.8 273.8C45.7 242.7 91.3 180.3 137 164.2C182.7 148 228.3 178 274 204.2C319.7 230.3 365.3 252.7 411.2 258.2C457 263.7 503 252.3 548.8 256.8C594.7 261.3 640.3 281.7 686 290.2C731.7 298.7 777.3 295.3 823 267C868.7 238.7 914.3 185.3 937.2 158.7L960 132L960 541L937.2 541C914.3 541 868.7 541 823 541C777.3 541 731.7 541 686 541C640.3 541 594.7 541 548.8 541C503 541 457 541 411.2 541C365.3 541 319.7 541 274 541C228.3 541 182.7 541 137 541C91.3 541 45.7 541 22.8 541L0 541Z" fill="#15becb"></path><path d="M0 151L22.8 170.3C45.7 189.7 91.3 228.3 137 250.7C182.7 273 228.3 279 274 268.7C319.7 258.3 365.3 231.7 411.2 226.2C457 220.7 503 236.3 548.8 246.3C594.7 256.3 640.3 260.7 686 245.7C731.7 230.7 777.3 196.3 823 178.2C868.7 160 914.3 158 937.2 157L960 156L960 541L937.2 541C914.3 541 868.7 541 823 541C777.3 541 731.7 541 686 541C640.3 541 594.7 541 548.8 541C503 541 457 541 411.2 541C365.3 541 319.7 541 274 541C228.3 541 182.7 541 137 541C91.3 541 45.7 541 22.8 541L0 541Z" fill="#00acc1"></path><path d="M0 265L22.8 277.3C45.7 289.7 91.3 314.3 137 330.5C182.7 346.7 228.3 354.3 274 338.2C319.7 322 365.3 282 411.2 267C457 252 503 262 548.8 271C594.7 280 640.3 288 686 285.2C731.7 282.3 777.3 268.7 823 274C868.7 279.3 914.3 303.7 937.2 315.8L960 328L960 541L937.2 541C914.3 541 868.7 541 823 541C777.3 541 731.7 541 686 541C640.3 541 594.7 541 548.8 541C503 541 457 541 411.2 541C365.3 541 319.7 541 274 541C228.3 541 182.7 541 137 541C91.3 541 45.7 541 22.8 541L0 541Z" fill="#009bb6"></path><path d="M0 365L22.8 355.3C45.7 345.7 91.3 326.3 137 310.2C182.7 294 228.3 281 274 285.7C319.7 290.3 365.3 312.7 411.2 317.3C457 322 503 309 548.8 318C594.7 327 640.3 358 686 372.8C731.7 387.7 777.3 386.3 823 378C868.7 369.7 914.3 354.3 937.2 346.7L960 339L960 541L937.2 541C914.3 541 868.7 541 823 541C777.3 541 731.7 541 686 541C640.3 541 594.7 541 548.8 541C503 541 457 541 411.2 541C365.3 541 319.7 541 274 541C228.3 541 182.7 541 137 541C91.3 541 45.7 541 22.8 541L0 541Z" fill="#008aa9"></path><path d="M0 404L22.8 399.5C45.7 395 91.3 386 137 378.7C182.7 371.3 228.3 365.7 274 370.7C319.7 375.7 365.3 391.3 411.2 382.3C457 373.3 503 339.7 548.8 330.5C594.7 321.3 640.3 336.7 686 336.2C731.7 335.7 777.3 319.3 823 330.8C868.7 342.3 914.3 381.7 937.2 401.3L960 421L960 541L937.2 541C914.3 541 868.7 541 823 541C777.3 541 731.7 541 686 541C640.3 541 594.7 541 548.8 541C503 541 457 541 411.2 541C365.3 541 319.7 541 274 541C228.3 541 182.7 541 137 541C91.3 541 45.7 541 22.8 541L0 541Z" fill="#00799b"></path><path d="M0 381L22.8 377.2C45.7 373.3 91.3 365.7 137 378C182.7 390.3 228.3 422.7 274 439.7C319.7 456.7 365.3 458.3 411.2 456.5C457 454.7 503 449.3 548.8 439C594.7 428.7 640.3 413.3 686 400.5C731.7 387.7 777.3 377.3 823 378C868.7 378.7 914.3 390.3 937.2 396.2L960 402L960 541L937.2 541C914.3 541 868.7 541 823 541C777.3 541 731.7 541 686 541C640.3 541 594.7 541 548.8 541C503 541 457 541 411.2 541C365.3 541 319.7 541 274 541C228.3 541 182.7 541 137 541C91.3 541 45.7 541 22.8 541L0 541Z" fill="#03698d"></path><path d="M0 461L22.8 453.3C45.7 445.7 91.3 430.3 137 422.5C182.7 414.7 228.3 414.3 274 421.2C319.7 428 365.3 442 411.2 450.8C457 459.7 503 463.3 548.8 456C594.7 448.7 640.3 430.3 686 419.8C731.7 409.3 777.3 406.7 823 406.8C868.7 407 914.3 410 937.2 411.5L960 413L960 541L937.2 541C914.3 541 868.7 541 823 541C777.3 541 731.7 541 686 541C640.3 541 594.7 541 548.8 541C503 541 457 541 411.2 541C365.3 541 319.7 541 274 541C228.3 541 182.7 541 137 541C91.3 541 45.7 541 22.8 541L0 541Z" fill="#08597e"></path><path d="M0 505L22.8 504C45.7 503 91.3 501 137 503.5C182.7 506 228.3 513 274 515.2C319.7 517.3 365.3 514.7 411.2 505.2C457 495.7 503 479.3 548.8 476.2C594.7 473 640.3 483 686 480.5C731.7 478 777.3 463 823 467C868.7 471 914.3 494 937.2 505.5L960 517L960 541L937.2 541C914.3 541 868.7 541 823 541C777.3 541 731.7 541 686 541C640.3 541 594.7 541 548.8 541C503 541 457 541 411.2 541C365.3 541 319.7 541 274 541C228.3 541 182.7 541 137 541C91.3 541 45.7 541 22.8 541L0 541Z" fill="#0c4a6e"></path></svg>