<svg id="visual" viewBox="0 0 900 450" width="900" height="450" xmlns="http://www.w3.org/2000/svg" xmlns:xlink="http://www.w3.org/1999/xlink" version="1.1"><path d="M0 109L12.5 119.7C25 130.3 50 151.7 75 154.7C100 157.7 125 142.3 150 122.3C175 102.3 200 77.7 225 78.2C250 78.7 275 104.3 300 120.3C325 136.3 350 142.7 375 130C400 117.3 425 85.7 450 79.2C475 72.7 500 91.3 525 115C550 138.7 575 167.3 600 168C625 168.7 650 141.3 675 139.8C700 138.3 725 162.7 750 163.2C775 163.7 800 140.3 825 120.7C850 101 875 85 887.5 77L900 69L900 451L887.5 451C875 451 850 451 825 451C800 451 775 451 750 451C725 451 700 451 675 451C650 451 625 451 600 451C575 451 550 451 525 451C500 451 475 451 450 451C425 451 400 451 375 451C350 451 325 451 300 451C275 451 250 451 225 451C200 451 175 451 150 451C125 451 100 451 75 451C50 451 25 451 12.5 451L0 451Z" fill="#2ccfd4"></path><path d="M0 85L12.5 87.8C25 90.7 50 96.3 75 99.5C100 102.7 125 103.3 150 114.5C175 125.7 200 147.3 225 165.3C250 183.3 275 197.7 300 185.7C325 173.7 350 135.3 375 125.2C400 115 425 133 450 133.5C475 134 500 117 525 118.5C550 120 575 140 600 143.5C625 147 650 134 675 125.8C700 117.7 725 114.3 750 130.5C775 146.7 800 182.3 825 178.5C850 174.7 875 131.3 887.5 109.7L900 88L900 451L887.5 451C875 451 850 451 825 451C800 451 775 451 750 451C725 451 700 451 675 451C650 451 625 451 600 451C575 451 550 451 525 451C500 451 475 451 450 451C425 451 400 451 375 451C350 451 325 451 300 451C275 451 250 451 225 451C200 451 175 451 150 451C125 451 100 451 75 451C50 451 25 451 12.5 451L0 451Z" fill="#15becb"></path><path d="M0 236L12.5 239.5C25 243 50 250 75 244.2C100 238.3 125 219.7 150 210.2C175 200.7 200 200.3 225 194C250 187.7 275 175.3 300 176C325 176.7 350 190.3 375 187.2C400 184 425 164 450 152C475 140 500 136 525 136.2C550 136.3 575 140.7 600 139.3C625 138 650 131 675 141.2C700 151.3 725 178.7 750 182.2C775 185.7 800 165.3 825 160.8C850 156.3 875 167.7 887.5 173.3L900 179L900 451L887.5 451C875 451 850 451 825 451C800 451 775 451 750 451C725 451 700 451 675 451C650 451 625 451 600 451C575 451 550 451 525 451C500 451 475 451 450 451C425 451 400 451 375 451C350 451 325 451 300 451C275 451 250 451 225 451C200 451 175 451 150 451C125 451 100 451 75 451C50 451 25 451 12.5 451L0 451Z" fill="#00acc1"></path><path d="M0 176L12.5 186C25 196 50 216 75 222.5C100 229 125 222 150 224.3C175 226.7 200 238.3 225 239.2C250 240 275 230 300 216C325 202 350 184 375 178C400 172 425 178 450 186.2C475 194.3 500 204.7 525 202.8C550 201 575 187 600 181.2C625 175.3 650 177.7 675 184.5C700 191.3 725 202.7 750 200.2C775 197.7 800 181.3 825 184C850 186.7 875 208.3 887.5 219.2L900 230L900 451L887.5 451C875 451 850 451 825 451C800 451 775 451 750 451C725 451 700 451 675 451C650 451 625 451 600 451C575 451 550 451 525 451C500 451 475 451 450 451C425 451 400 451 375 451C350 451 325 451 300 451C275 451 250 451 225 451C200 451 175 451 150 451C125 451 100 451 75 451C50 451 25 451 12.5 451L0 451Z" fill="#009bb6"></path><path d="M0 219L12.5 228.5C25 238 50 257 75 255.3C100 253.7 125 231.3 150 233.7C175 236 200 263 225 277.8C250 292.7 275 295.3 300 287C325 278.7 350 259.3 375 260.5C400 261.7 425 283.3 450 295.7C475 308 500 311 525 308.2C550 305.3 575 296.7 600 285.8C625 275 650 262 675 266.7C700 271.3 725 293.7 750 286.8C775 280 800 244 825 227.2C850 210.3 875 212.7 887.5 213.8L900 215L900 451L887.5 451C875 451 850 451 825 451C800 451 775 451 750 451C725 451 700 451 675 451C650 451 625 451 600 451C575 451 550 451 525 451C500 451 475 451 450 451C425 451 400 451 375 451C350 451 325 451 300 451C275 451 250 451 225 451C200 451 175 451 150 451C125 451 100 451 75 451C50 451 25 451 12.5 451L0 451Z" fill="#008aa9"></path><path d="M0 329L12.5 328.2C25 327.3 50 325.7 75 319.2C100 312.7 125 301.3 150 304.8C175 308.3 200 326.7 225 334.2C250 341.7 275 338.3 300 322.3C325 306.3 350 277.7 375 263.2C400 248.7 425 248.3 450 254.2C475 260 500 272 525 279.2C550 286.3 575 288.7 600 294.7C625 300.7 650 310.3 675 310.8C700 311.3 725 302.7 750 292.8C775 283 800 272 825 264.3C850 256.7 875 252.3 887.5 250.2L900 248L900 451L887.5 451C875 451 850 451 825 451C800 451 775 451 750 451C725 451 700 451 675 451C650 451 625 451 600 451C575 451 550 451 525 451C500 451 475 451 450 451C425 451 400 451 375 451C350 451 325 451 300 451C275 451 250 451 225 451C200 451 175 451 150 451C125 451 100 451 75 451C50 451 25 451 12.5 451L0 451Z" fill="#00799b"></path><path d="M0 341L12.5 334.2C25 327.3 50 313.7 75 312.8C100 312 125 324 150 325.5C175 327 200 318 225 323.2C250 328.3 275 347.7 300 350C325 352.3 350 337.7 375 332.8C400 328 425 333 450 339.2C475 345.3 500 352.7 525 353.3C550 354 575 348 600 350.7C625 353.3 650 364.7 675 357.5C700 350.3 725 324.7 750 314.3C775 304 800 309 825 318.2C850 327.3 875 340.7 887.5 347.3L900 354L900 451L887.5 451C875 451 850 451 825 451C800 451 775 451 750 451C725 451 700 451 675 451C650 451 625 451 600 451C575 451 550 451 525 451C500 451 475 451 450 451C425 451 400 451 375 451C350 451 325 451 300 451C275 451 250 451 225 451C200 451 175 451 150 451C125 451 100 451 75 451C50 451 25 451 12.5 451L0 451Z" fill="#03698d"></path><path d="M0 393L12.5 383.8C25 374.7 50 356.3 75 350.5C100 344.7 125 351.3 150 356.5C175 361.7 200 365.3 225 370.5C250 375.7 275 382.3 300 383.3C325 384.3 350 379.7 375 380.8C400 382 425 389 450 387.8C475 386.7 500 377.3 525 376.2C550 375 575 382 600 378.7C625 375.3 650 361.7 675 360.3C700 359 725 370 750 369.5C775 369 800 357 825 354C850 351 875 357 887.5 360L900 363L900 451L887.5 451C875 451 850 451 825 451C800 451 775 451 750 451C725 451 700 451 675 451C650 451 625 451 600 451C575 451 550 451 525 451C500 451 475 451 450 451C425 451 400 451 375 451C350 451 325 451 300 451C275 451 250 451 225 451C200 451 175 451 150 451C125 451 100 451 75 451C50 451 25 451 12.5 451L0 451Z" fill="#08597e"></path><path d="M0 376L12.5 379.5C25 383 50 390 75 394.3C100 398.7 125 400.3 150 396.7C175 393 200 384 225 382.5C250 381 275 387 300 390.7C325 394.3 350 395.7 375 398.2C400 400.7 425 404.3 450 406.3C475 408.3 500 408.7 525 411.2C550 413.7 575 418.3 600 417.7C625 417 650 411 675 402.8C700 394.7 725 384.3 750 388.3C775 392.3 800 410.7 825 412.2C850 413.7 875 398.3 887.5 390.7L900 383L900 451L887.5 451C875 451 850 451 825 451C800 451 775 451 750 451C725 451 700 451 675 451C650 451 625 451 600 451C575 451 550 451 525 451C500 451 475 451 450 451C425 451 400 451 375 451C350 451 325 451 300 451C275 451 250 451 225 451C200 451 175 451 150 451C125 451 100 451 75 451C50 451 25 451 12.5 451L0 451Z" fill="#0c4a6e"></path></svg>